<svg xmlns="http://www.w3.org/2000/svg" viewBox="0 0 2500 730"><g data-name="Слой 1"><clipPath id="a"><path transform="matrix(1 0 0 -1 0 730)" d="M0 730h2500V0H0Z"/></clipPath><g clip-path="url(#a)"><path d="M775.753 298.034v72.48h84.56c20.007 0 36.242-16.233 36.242-36.238s-16.235-36.242-36.242-36.242Zm0 120.8v48.32c0 13.214-10.953 24.162-24.16 24.162-13.214 0-24.16-10.948-24.16-24.162V273.876c0-13.214 10.946-24.163 24.16-24.163h108.72c46.803 0 84.56 37.754 84.56 84.563 0 46.81-37.757 84.558-84.56 84.558ZM1014.323 298.034v48.32h96.64c13.202 0 24.159-10.944 24.159-24.157 0-13.219-10.957-24.163-24.158-24.163Zm0 169.12c0 13.214-10.962 24.162-24.16 24.162-13.217 0-24.161-10.948-24.161-24.162V273.876c0-13.214 10.944-24.163 24.162-24.163h120.8c40.009 0 72.479 32.461 72.479 72.484 0 36.995-27.563 67.571-63.42 72.102l56.248 55.87c4.903 4.53 7.172 10.948 7.172 16.985 0 13.214-10.962 24.162-24.16 24.162-6.04 0-12.463-2.26-17.002-7.177l-89.464-89.463h-38.494ZM1319.327 442.996c40.014 0 72.482-32.46 72.482-72.483 0-40.018-32.468-72.479-72.482-72.479-40.01 0-72.479 32.461-72.479 72.48 0 40.021 32.47 72.482 72.48 72.482m0-193.283c66.81 0 120.802 53.986 120.802 120.8 0 66.818-53.993 120.803-120.803 120.803-66.823 0-120.8-53.985-120.8-120.803 0-66.814 53.977-120.8 120.8-120.8M1502.033 394.676c-13.214 0-24.163-10.944-24.163-24.163 0-13.214 10.95-24.158 24.163-24.158h36.237c13.201 0 24.162 10.944 24.162 24.158 0 13.219-10.96 24.163-24.162 24.163ZM1649.809 394.67v48.32h96.64c13.208 0 24.16-10.943 24.16-24.156 0-13.214-10.952-24.163-24.16-24.163Zm0-96.636v48.32h84.56c13.208 0 24.16-10.948 24.16-24.162 0-13.213-10.952-24.158-24.16-24.158Zm-24.16 193.279c-13.214 0-24.161-10.945-24.161-24.16V273.873c0-13.214 10.947-24.158 24.16-24.158h108.72c40.012 0 72.48 32.46 72.48 72.478a71.61 71.61 0 0 1-13.212 41.52c15.468 13.215 25.293 33.225 25.293 55.122 0 40.018-32.468 72.479-72.48 72.479ZM1870.257 298.034h-24.158c-13.214 0-24.164-10.949-24.164-24.163 0-13.213 10.95-24.157 24.164-24.157h96.637c13.218 0 24.163 10.944 24.163 24.157 0 13.214-10.945 24.163-24.163 24.163h-24.158v144.957h24.158c13.218 0 24.163 10.95 24.163 24.163 0 13.214-10.945 24.158-24.163 24.158h-96.637c-13.214 0-24.164-10.944-24.164-24.158s10.95-24.163 24.164-24.163h24.158ZM2296.064 442.991h120.8c13.202 0 24.162 10.95 24.162 24.163 0 13.214-10.96 24.158-24.161 24.158h-144.962c-13.215 0-24.159-10.944-24.159-24.158V273.871c0-13.213 10.944-24.157 24.159-24.157h144.962c13.2 0 24.162 10.944 24.162 24.157 0 13.214-10.961 24.163-24.162 24.163h-120.8v48.321h96.641c13.197 0 24.159 10.944 24.159 24.157 0 13.214-10.962 24.16-24.159 24.16h-96.642ZM2163.169 393.9c-.381.42-.706.856-1.121 1.268l-30.838 30.833c-.664.664-1.375 1.216-2.056 1.837l56.302 56.302c4.539 4.911 10.949 7.172 16.986 7.172 13.214 0 24.163-10.944 24.163-24.158 0-6.042-2.256-12.456-7.176-16.986ZM2105.831 404.51c.612-.685 1.165-1.395 1.828-2.06l30.838-30.833c.54-.54 1.109-.971 1.661-1.472l79.271-79.287c4.538-4.53 7.175-10.568 7.175-16.986 0-13.214-10.948-24.158-24.162-24.158-6.405 0-12.447 2.642-16.986 7.172l-152.134 152.13V273.872c0-13.214-10.944-24.158-24.158-24.158s-24.162 10.944-24.162 24.158v193.283c0 13.213 10.948 24.158 24.162 24.158 6.038 0 12.465-2.261 16.986-7.172l79.656-79.651Z" fill="#2d2a26"/><path d="M586.421 308.26c-15.597-11.17-32.74-18.422-50.267-25.926-12.903-5.524-23.62-12.68-30.506-25.276-4.449-8.133-8.069-16.633-12.827-24.622-4.698-7.888-9.932-15.465-15.703-22.61-11.179-13.834-24.42-26.022-39.414-35.623-31.286-20.04-68.768-27.326-105.48-23.19-36.189 4.078-69.618 20.679-95 46.745-12.823 13.168-23.473 28.36-32.012 44.613-3.958 7.535-6.99 15.607-12.252 22.379-4.01 5.16-9.064 9.279-14.74 12.489-13.9 7.855-29.453 12.394-43.475 20.123-18.488 10.19-34.689 23.157-46.675 40.682-22.076 32.288-29.656 74.388-21.735 112.545 7.175 34.566 27.266 65.788 55.605 86.81 30.283 22.468 68.968 32.358 106.318 27.002 25.398-3.645 62.82-16.218 93.385-53.425 19.75-24.041 38.87-24.918 59.301 0 20.447 24.934 43.76 41.289 75.248 50.33 38.095 10.934 79.128 4.383 113.185-15.896 30.19-17.981 53.277-46.9 63.981-80.381 11.763-36.79 8.23-78.348-9.368-112.723-8.88-17.347-27.424-37.708-37.569-44.045" fill="#0f9bdf"/><path d="M437.93 322.52a12.256 12.256 0 0 0 10.339 5.667 12.22 12.22 0 0 0 6.556-1.912c5.7-3.619 7.377-11.192 3.745-16.881l-6.454-10.17-.067-37.891c0-23.597-18.881-32.521-28.864-33.95a12.828 12.828 0 0 0-1.716-.117h-32.2c-6.76 0-12.23 5.474-12.23 12.227 0 6.754 5.47 12.232 12.23 12.232h30.995c3.019.734 7.32 2.954 7.32 9.712l.044 26.462c-.28.267-.576.49-.836.788L346.32 389.515l-19.08-47.805c-2.505-6.271-9.623-9.326-15.9-6.821-6.267 2.501-9.326 9.622-6.82 15.895l26.498 66.391a12.245 12.245 0 0 0 9.319 7.534c.678.117 1.364.169 2.046.169 3.504 0 6.88-1.508 9.226-4.189l83.22-103.039Z" fill="#fff"/><path d="M385.49 312.169c6.758 0 12.232-5.481 12.232-12.237S392.248 287.7 385.49 287.7h-71.411v-13.116l3.556.01h.294c6.618 0 12.063-5.292 12.215-11.944.166-6.758-5.181-12.352-11.938-12.52l-57.094-.145c-.094-.01-.193-.01-.29-.01-6.62 0-12.07 5.294-12.23 11.95-.157 6.754 5.193 12.36 11.947 12.515l27.909.078v16.63a12.17 12.17 0 0 0-2.03 2.567l-20.591 33.712c-3.441 5.816-1.505 13.314 4.31 16.752a12.254 12.254 0 0 0 6.215 1.7c4.183 0 8.263-2.15 10.54-6.015l17.04-27.695ZM274.13 439.118H130.833c-7.073 0-12.81 5.737-12.81 12.82 0 7.071 5.737 12.808 12.81 12.808H274.13c7.08 0 12.821-5.737 12.821-12.808 0-7.083-5.742-12.82-12.82-12.82M232.156 486.238H170.91c-7.078 0-12.814 5.742-12.814 12.818 0 7.073 5.736 12.816 12.814 12.816h61.247c7.086 0 12.824-5.743 12.824-12.816 0-7.076-5.738-12.818-12.824-12.818M159.664 370.516h84.19c7.079 0 12.822-5.74 12.822-12.816 0-7.076-5.743-12.815-12.821-12.815h-84.191c-7.066 0-12.804 5.739-12.804 12.815s5.738 12.816 12.804 12.816M277.628 392.003H125.004c-7.073 0-12.812 5.734-12.812 12.813 0 7.075 5.74 12.813 12.812 12.813h152.624c7.072 0 12.816-5.738 12.816-12.813 0-7.08-5.744-12.813-12.816-12.813M571.384 439.118H428.086c-7.075 0-12.814 5.737-12.814 12.82 0 7.071 5.739 12.808 12.814 12.808h143.298c7.076 0 12.82-5.737 12.82-12.808 0-7.083-5.744-12.82-12.82-12.82M529.407 486.238H468.16c-7.078 0-12.816 5.742-12.816 12.818 0 7.073 5.738 12.816 12.816 12.816h61.247c7.083 0 12.822-5.743 12.822-12.816 0-7.076-5.739-12.818-12.822-12.818M456.915 370.516h84.19c7.08 0 12.82-5.74 12.82-12.816 0-7.076-5.74-12.815-12.82-12.815h-84.19c-7.066 0-12.803 5.739-12.803 12.815s5.737 12.816 12.803 12.816M574.878 392.003H422.254c-7.071 0-12.811 5.734-12.811 12.813 0 7.075 5.74 12.813 12.81 12.813h152.625c7.073 0 12.815-5.738 12.815-12.813 0-7.08-5.742-12.813-12.815-12.813" fill="#fff"/></g></g></svg>